<?xml version="1.0" standalone="no"?>
<!DOCTYPE svg PUBLIC "-//W3C//DTD SVG 20010904//EN"
 "http://www.w3.org/TR/2001/REC-SVG-20010904/DTD/svg10.dtd">
<svg version="1.0" xmlns="http://www.w3.org/2000/svg"
 width="640.000000pt" height="640.000000pt" viewBox="0 0 640.000000 640.000000"
 preserveAspectRatio="xMidYMid meet">
<metadata>
Created by potrace 1.14, written by Peter Selinger 2001-2017
</metadata>
<g transform="translate(0.000000,640.000000) scale(0.100000,-0.100000)"
fill="#000000" stroke="none">
<path d="M0 3200 l0 -3200 3200 0 3200 0 0 3200 0 3200 -3200 0 -3200 0 0
-3200z m1746 2672 c131 -81 399 -293 459 -363 11 -13 -11 4 -50 37 -79 68
-161 130 -250 189 -33 21 -65 42 -71 47 -6 4 -19 1 -30 -7 -14 -11 -15 -14 -3
-9 10 3 20 0 25 -7 4 -7 3 -10 -4 -5 -6 3 -14 1 -18 -5 -5 -8 -3 -9 5 -5 8 5
11 2 9 -9 -2 -10 3 -20 11 -23 9 -3 11 1 7 16 -4 11 -2 23 4 27 14 9 32 -4 23
-18 -6 -10 -7 -30 -4 -68 1 -8 7 -7 17 2 15 12 16 11 9 -9 -6 -22 -5 -23 17
-12 22 11 22 10 4 -4 -18 -15 -15 -21 9 -16 6 1 7 -2 3 -6 -4 -4 -3 -14 4 -23
6 -9 -24 19 -68 62 -86 85 -118 110 -107 81 4 -10 2 -15 -3 -11 -6 3 -8 -8 -6
-29 2 -18 1 -42 -3 -51 -5 -15 -10 -11 -26 20 -11 20 -22 37 -26 37 -3 0 -4
-3 0 -6 7 -7 -32 -84 -43 -84 -4 0 -7 -6 -6 -12 2 -19 -47 -168 -55 -168 -4 0
-5 -10 -1 -22 4 -16 2 -19 -8 -13 -9 5 -11 4 -6 -4 4 -7 1 -44 -7 -84 -23
-107 -26 -127 -41 -308 -16 -182 -24 -214 -55 -222 -12 -3 -19 -1 -15 4 3 5 1
9 -5 9 -5 0 -14 -12 -20 -27 l-11 -28 3 33 c2 17 0 32 -5 32 -4 0 -8 -10 -8
-22 0 -33 -11 -68 -21 -68 -5 0 -6 6 -4 13 2 6 6 55 9 107 2 52 12 145 21 205
26 176 100 489 114 481 3 -2 6 11 7 30 0 21 8 40 20 50 10 8 13 12 5 8 -10 -5
-13 -3 -9 7 3 8 17 49 33 91 16 45 32 75 38 71 5 -3 7 -1 4 4 -15 24 35 123
62 123 3 0 33 -17 67 -38z m124 -267 c86 -93 140 -168 140 -194 0 -9 -15 0
-40 24 -45 44 -46 43 -25 -8 25 -59 18 -60 -42 -3 -32 30 -59 53 -61 51 -2 -2
19 -39 47 -84 28 -45 49 -81 47 -81 -2 0 -24 8 -48 18 -24 11 -58 22 -76 25
-33 7 -33 7 23 -44 30 -29 54 -53 52 -56 -2 -2 -24 8 -48 22 -72 40 -85 32
-33 -22 44 -45 118 -147 131 -178 4 -12 -5 -9 -31 9 -20 13 -69 38 -109 54
-127 52 -129 52 -60 -20 111 -117 139 -175 172 -365 10 -61 29 -133 41 -160
l21 -48 -45 45 -46 44 0 -46 c0 -25 7 -65 15 -89 l16 -43 -27 25 c-14 13 -37
43 -51 67 -14 23 -28 42 -33 42 -9 0 -30 -100 -30 -142 0 -59 32 -185 60 -234
l29 -52 -48 -6 c-56 -7 -136 -45 -136 -65 0 -8 18 -19 40 -26 64 -19 117 -50
174 -101 l52 -47 -33 -28 c-18 -15 -55 -40 -82 -55 -58 -32 -55 -33 -111 76
-135 266 -200 717 -164 1135 16 187 65 406 129 570 l11 29 22 -39 c12 -21 27
-40 33 -42 12 -4 24 49 24 105 0 19 4 32 8 30 4 -1 46 -43 92 -93z m145 -105
c10 -11 16 -20 13 -20 -3 0 -13 9 -23 20 -10 11 -16 20 -13 20 3 0 13 -9 23
-20z m1795 -189 c-35 -67 -67 -121 -73 -121 -6 0 -8 -3 -4 -6 3 -3 -6 -17 -20
-30 -20 -18 -22 -24 -9 -24 9 0 16 7 16 16 0 8 5 12 10 9 6 -4 7 -12 4 -18 -4
-7 7 1 24 17 40 37 51 29 17 -13 -15 -17 -23 -36 -19 -42 4 -8 3 -9 -4 -5 -6
3 -16 -3 -22 -14 -10 -19 -9 -19 15 -8 14 6 25 16 25 21 0 6 3 7 7 4 3 -4 15
0 25 10 10 9 18 13 18 9 0 -4 6 -4 13 1 47 29 174 22 290 -16 141 -46 219 -61
332 -61 l99 0 -43 -44 c-23 -24 -65 -54 -92 -67 -26 -13 -48 -27 -49 -31 0 -4
30 -17 68 -29 78 -25 276 -36 360 -21 51 9 52 9 46 -12 -3 -11 -15 -37 -26
-56 -11 -19 -22 -43 -24 -54 -2 -11 -9 -23 -15 -26 -6 -4 -10 -10 -10 -13 2
-20 -48 -113 -113 -210 -48 -74 -103 -140 -159 -194 l-85 -81 33 -6 c17 -4 63
-2 100 3 38 6 72 8 77 5 4 -3 8 0 8 7 0 7 3 10 6 7 8 -9 -24 -68 -37 -68 -6 0
-8 -4 -5 -9 3 -5 -1 -12 -10 -15 -8 -3 -13 -10 -10 -15 7 -11 -54 -95 -98
-134 -17 -16 -31 -34 -31 -40 0 -7 -5 -12 -12 -12 -6 0 -21 -12 -33 -28 -12
-15 -26 -25 -31 -22 -5 4 -21 -7 -36 -22 -14 -15 -23 -22 -19 -15 6 10 0 9
-23 -2 -17 -9 -31 -21 -31 -26 0 -5 -7 -6 -17 -3 -11 5 -14 3 -8 -6 6 -10 2
-11 -15 -6 -14 4 -20 3 -17 -2 4 -6 -6 -10 -21 -11 -49 -1 -132 -14 -132 -21
0 -23 117 -147 128 -136 2 2 -10 17 -29 32 -41 35 -68 63 -79 84 -8 14 -2 17
33 22 23 2 49 8 57 11 11 5 19 -3 28 -26 8 -21 9 -34 2 -36 -6 -2 -8 -7 -5
-12 3 -4 6 -27 7 -50 1 -22 5 -43 10 -46 18 -11 7 -21 -19 -17 -23 3 -24 2 -8
-5 26 -12 -176 -5 -280 10 -44 5 -98 11 -120 13 -51 3 -179 54 -252 101 -32
20 -86 64 -120 97 -35 33 -66 57 -69 54 -8 -8 12 -143 35 -234 12 -49 14 -73
7 -73 -6 0 -40 17 -75 38 -75 44 -171 144 -223 232 l-37 62 -5 -33 c-3 -19 -7
-52 -8 -74 l-3 -40 -22 41 c-12 22 -29 78 -39 125 -14 69 -15 98 -6 169 6 48
19 112 30 143 10 31 17 57 15 57 -3 0 -25 -21 -49 -47 l-44 -48 31 70 c83 187
88 224 47 355 -39 124 -95 216 -185 305 -79 78 -84 85 -72 107 7 13 21 33 33
44 12 12 44 46 72 75 28 30 64 65 80 79 33 29 144 94 144 84 0 -4 8 -1 18 6 9
7 2 -1 -15 -19 -18 -17 -33 -35 -33 -41 0 -5 -3 -10 -7 -10 -12 0 -43 -59 -34
-64 4 -3 23 4 42 16 95 58 146 76 234 83 17 1 57 5 90 8 33 4 94 9 135 13 115
9 272 67 338 125 19 17 36 28 39 25 3 -2 -23 -59 -57 -125z m-1420 4 c13 -14
21 -25 18 -25 -2 0 -15 11 -28 25 -13 14 -21 25 -18 25 2 0 15 -11 28 -25z
m-206 -21 c7 -19 2 -18 -19 6 -16 17 -16 20 -3 15 9 -4 19 -13 22 -21z m247
-31 c13 -16 12 -17 -3 -4 -10 7 -18 15 -18 17 0 8 8 3 21 -13z m-216 -23 l20
-25 -22 19 c-13 11 -23 24 -23 29 0 6 1 8 3 6 1 -2 11 -15 22 -29z m3538 -398
c-6 -297 -112 -748 -249 -1068 -20 -47 -38 -83 -41 -81 -2 2 8 40 22 83 30 95
31 122 4 74 -11 -19 -17 -26 -14 -15 15 47 16 74 5 92 -7 11 -10 12 -7 2 3 -8
0 -25 -7 -36 l-11 -22 -11 24 c-9 19 -7 36 11 87 12 35 45 127 73 204 70 195
103 361 115 571 2 35 4 40 19 32 11 -6 19 -5 24 3 5 7 3 8 -6 3 -9 -6 -11 -4
-6 4 5 7 14 10 20 8 29 -11 39 11 40 82 1 47 4 67 11 60 6 -6 9 -53 8 -107z
m-196 -34 c-27 -73 -40 -118 -34 -124 3 -4 25 5 47 20 l41 27 -6 -63 c-27
-265 -117 -551 -261 -827 -156 -299 -363 -557 -548 -684 l-59 -40 -25 29 c-30
37 -75 131 -68 143 3 5 38 17 77 26 54 14 92 16 155 11 46 -3 84 -2 84 2 0 21
-61 91 -103 118 l-44 30 38 22 c43 25 129 123 159 182 22 44 53 151 45 158 -3
3 -13 -2 -22 -10 -18 -16 -117 -68 -129 -68 -3 0 10 18 29 39 36 40 72 99 65
107 -2 2 -29 -6 -58 -17 l-55 -21 46 44 c25 24 71 79 101 123 94 135 175 198
326 250 28 11 52 22 52 26 0 11 -202 22 -240 14 -74 -16 22 47 155 102 44 18
71 33 60 34 -11 1 -24 3 -30 4 -5 2 -26 3 -45 4 -34 2 -34 3 -10 13 14 6 45
16 70 23 36 11 40 13 18 14 -16 1 -28 5 -28 11 0 5 -26 10 -57 12 l-58 3 83
53 c45 29 82 54 82 57 0 2 -35 -7 -77 -20 -43 -13 -79 -23 -80 -21 -2 2 12 17
32 34 41 36 44 45 13 33 -13 -4 -36 -11 -52 -15 -27 -7 -28 -6 -15 10 16 20
121 70 236 114 89 33 97 35 90 18z m67 -17 c3 -5 -10 -21 -29 -35 -22 -17 -32
-21 -29 -11 3 8 10 15 16 15 5 0 6 5 3 10 -4 6 -3 10 2 9 20 -3 34 2 28 11 -3
6 -4 10 -1 10 3 0 7 -4 10 -9z m-2898 -627 c19 -9 45 -30 59 -46 24 -29 25
-29 25 -6 1 23 1 23 15 -3 27 -49 32 -210 7 -209 -4 1 -16 15 -27 33 -41 66
-154 95 -284 72 l-44 -7 7 28 c4 16 14 36 22 45 17 19 18 33 2 23 -7 -4 -2 5
11 19 29 32 101 61 135 55 14 -3 23 -1 20 3 -8 14 15 11 52 -7z m-11 -279 c85
-18 117 -40 128 -89 10 -40 2 -59 -14 -36 -9 12 -9 11 -4 -5 34 -95 37 -129
26 -305 -7 -130 -16 -198 -35 -265 -25 -90 -73 -212 -60 -150 4 17 10 48 15
70 13 63 10 235 -5 290 -31 117 -95 203 -181 245 -40 19 -58 22 -133 18 -73
-4 -99 -10 -163 -40 -91 -42 -172 -100 -224 -160 l-38 -43 6 45 c3 25 9 55 12
65 7 20 6 20 -9 1 -23 -29 -25 -18 -9 54 8 36 15 77 17 91 4 44 31 74 103 111
193 101 400 138 568 103z m1195 -310 c30 -3 72 -7 93 -9 127 -12 437 -307 437
-418 0 -21 -4 -38 -10 -38 -5 0 -10 -13 -10 -28 0 -16 -8 -51 -17 -78 -17 -48
-17 -49 -23 -19 -6 27 -7 25 -19 -27 -15 -68 -27 -80 -35 -35 -9 48 -61 153
-112 223 -83 117 -182 177 -290 178 -180 0 -347 -188 -404 -455 -8 -36 -9 -28
-5 46 5 108 42 250 87 337 43 82 43 82 28 73 -24 -15 54 118 100 168 26 30 37
48 26 44 -17 -7 -17 -6 -4 15 8 13 17 28 21 34 5 8 19 9 44 4 21 -5 63 -11 93
-15z m337 9 c-3 -3 -12 -4 -19 -1 -8 3 -5 6 6 6 11 1 17 -2 13 -5z m-2467 -24
c0 -5 -4 -10 -9 -10 -12 0 -123 -101 -117 -107 2 -3 15 1 28 8 l23 12 -20 -23
-20 -23 20 6 c11 4 51 16 88 27 38 12 71 19 74 17 6 -7 -83 -106 -126 -140
-20 -16 -38 -31 -41 -34 -9 -10 64 9 93 23 31 17 35 9 10 -19 -18 -19 -18 -20
15 -3 44 23 40 5 -12 -50 -38 -39 -41 -45 -20 -40 13 4 24 5 24 3 0 -3 -44
-33 -97 -68 -54 -36 -90 -65 -81 -67 8 -2 42 3 75 11 l60 14 -38 -51 c-40 -53
-63 -110 -73 -184 l-7 -44 51 54 50 53 -19 -45 c-48 -111 -52 -276 -9 -384 24
-62 48 -84 48 -46 0 35 17 13 24 -32 7 -42 50 -131 85 -177 l19 -25 -5 50 -6
49 37 -70 c59 -112 96 -137 62 -42 -19 51 -11 47 18 -10 13 -27 53 -87 89
-135 l65 -88 -36 19 c-21 10 -68 29 -107 41 -131 41 -403 37 -487 -6 -16 -9
-33 -13 -36 -10 -8 9 82 99 143 144 l50 37 -100 6 c-76 5 -116 13 -165 34
-103 42 -106 52 -16 53 42 1 94 7 117 13 l40 12 -53 17 c-104 32 -144 58 -267
172 -36 32 -91 75 -123 95 -32 20 -58 39 -58 43 0 9 137 55 239 80 47 11 87
22 89 25 7 6 -38 22 -84 30 -66 11 -239 47 -243 51 -13 11 176 141 254 175 30
13 55 27 55 31 0 3 -43 16 -95 28 -52 12 -95 26 -95 31 0 5 4 9 8 9 21 0 106
87 207 215 132 165 142 175 226 220 51 28 75 35 122 35 31 0 57 -4 57 -10z
m482 -77 c-24 -52 -27 -69 -26 -168 1 -84 6 -124 22 -170 11 -33 19 -61 17
-63 -10 -10 -155 152 -183 206 -38 71 -39 68 38 141 29 28 146 111 156 111 2
0 -9 -26 -24 -57z m455 -96 c5 -34 4 -37 -19 -37 -48 0 -65 47 -26 74 27 19
37 11 45 -37z m-332 -74 c0 -98 3 -114 28 -165 49 -99 140 -157 229 -145 l37
5 -20 -52 c-12 -28 -22 -52 -24 -54 -5 -6 -138 48 -206 84 -39 21 -82 52 -95
70 -37 48 -64 127 -64 185 l0 51 35 -4 c19 -2 33 -2 31 0 -9 8 31 132 43 132
3 0 6 -48 6 -107z m1567 -150 c21 -19 23 -44 6 -61 -39 -39 -100 17 -63 58 22
24 33 25 57 3z m-1392 -89 c0 -3 -13 3 -30 13 -16 9 -30 21 -30 26 0 5 14 -1
30 -13 17 -12 30 -24 30 -26z m1659 -69 c18 -34 38 -86 46 -116 14 -54 14 -54
-13 -77 -55 -46 -227 -122 -277 -122 -6 0 12 24 40 53 86 89 153 246 143 333
-4 35 -4 35 13 13 9 -12 31 -50 48 -84z m-189 16 c0 -15 -7 -50 -15 -76 -8
-27 -13 -50 -12 -50 1 -1 16 -7 34 -14 l32 -13 -21 -36 c-28 -53 -96 -119
-143 -142 -33 -16 -62 -20 -142 -20 -55 0 -121 3 -147 6 l-46 7 0 58 c0 33 4
59 10 59 6 0 10 -4 10 -8 0 -5 16 -16 35 -25 50 -24 138 -22 191 3 81 40 172
163 190 257 7 39 24 34 24 -6z m686 -156 c62 -40 132 -195 164 -360 26 -133
53 -222 81 -269 23 -38 26 -47 12 -41 -19 7 -182 44 -196 45 -5 0 8 -21 30
-47 21 -27 48 -62 60 -79 30 -43 105 -195 99 -201 -2 -3 -26 2 -53 10 -81 26
-255 68 -266 64 -5 -1 21 -30 59 -63 91 -79 188 -173 183 -177 -2 -2 -40 -8
-84 -15 -44 -6 -125 -25 -180 -42 -106 -33 -194 -41 -280 -27 l-49 9 39 -36
c36 -32 83 -59 140 -81 17 -7 16 -9 -12 -15 -64 -15 -153 2 -249 45 -41 19
-74 32 -74 31 0 -2 13 -32 29 -67 33 -74 63 -169 53 -169 -4 0 -18 12 -31 26
-35 36 -123 95 -208 137 -88 45 -191 74 -290 83 l-74 7 102 54 c57 29 110 59
118 67 35 30 44 28 18 -3 -15 -19 -26 -35 -24 -38 7 -7 108 57 146 91 l33 31
-26 -42 c-18 -29 -22 -43 -13 -43 25 0 102 57 150 110 41 45 47 49 42 27 -11
-43 10 -33 78 36 88 89 146 220 148 332 0 40 0 40 22 -24 l22 -64 18 59 c19
60 19 183 1 229 -7 17 -5 17 17 -4 26 -25 94 -71 105 -71 4 0 2 6 -4 13 -14
16 -112 187 -112 194 0 4 10 -2 22 -13 21 -19 21 -19 13 1 -14 36 -33 110 -28
115 2 3 13 -6 24 -20 l20 -25 -7 30 -6 30 29 -30 c15 -17 39 -40 52 -50 l24
-20 -21 40 c-22 44 -62 168 -62 192 0 9 29 -11 71 -48 57 -51 70 -58 64 -39
-7 23 -7 24 10 10 17 -14 18 -13 11 15 -6 24 -27 74 -54 128 -5 10 64 -18 94
-38z m-1575 -5 c172 -53 286 -176 297 -320 l4 -65 -38 36 c-78 73 -203 139
-325 170 -33 9 -105 14 -189 14 -114 0 -143 -4 -187 -22 l-52 -21 23 47 c24
46 92 118 134 140 79 42 233 52 333 21z m602 -57 c-7 -2 -19 -2 -25 0 -7 3 -2
5 12 5 14 0 19 -2 13 -5z m-1627 -65 c32 -48 41 -81 49 -196 8 -104 24 -161
66 -239 21 -40 35 -74 31 -76 -4 -2 -19 -7 -34 -11 -14 -3 -41 -18 -59 -33
l-32 -27 5 31 c2 18 0 29 -5 26 -15 -9 -37 -70 -37 -105 l-1 -33 -30 35 c-17
19 -55 85 -86 145 l-55 110 5 -69 c6 -83 -2 -73 -39 54 -32 109 -32 109 -44
90 -7 -10 -10 7 -10 53 0 38 4 66 9 63 5 -3 12 14 15 39 7 42 67 146 101 175
13 11 13 8 0 -23 -8 -20 -15 -47 -14 -59 0 -22 1 -22 12 -4 27 44 91 107 106
104 9 -2 30 -24 47 -50z m168 -159 l14 -34 1 35 1 35 21 -35 c12 -19 29 -41
38 -48 25 -20 94 -52 115 -52 16 0 16 2 5 16 -11 13 -9 14 12 9 29 -7 76 9
105 36 l22 20 6 -45 c16 -107 125 -258 259 -362 34 -26 37 -32 31 -63 -7 -32
-9 -33 -43 -27 -20 3 -115 11 -211 17 -200 14 -218 20 -297 98 -158 155 -209
354 -136 521 l16 35 13 -61 c7 -34 20 -77 28 -95z m463 63 c-39 -43 -18 -52
111 -52 126 0 238 -27 367 -88 113 -54 144 -56 136 -9 -3 16 38 -14 44 -33 11
-36 -14 -51 -53 -31 -57 29 -189 85 -253 106 -75 25 -141 33 -324 38 -93 3
-100 5 -103 24 -3 23 39 60 57 49 5 -4 12 -2 16 4 3 5 9 10 12 10 3 0 -1 -8
-10 -18z m-1725 -147 c-7 -16 -17 -23 -24 -19 -6 4 -8 3 -5 -3 9 -15 -13 -22
-46 -16 -15 3 -27 12 -27 20 0 13 3 13 15 3 12 -10 15 -9 15 4 0 10 5 14 10
11 10 -6 14 6 11 35 -2 13 -1 13 8 0 8 -12 11 -12 17 4 6 16 8 16 22 2 13 -12
13 -20 4 -41z m42 -26 c-44 -35 -48 -36 -33 -6 16 29 40 46 56 40 8 -3 0 -15
-23 -34z m-166 -17 c-1 -21 -6 -28 -22 -29 -12 -1 -15 1 -8 4 16 6 16 36 0 31
-7 -3 -19 -17 -28 -33 -20 -36 -36 -42 -43 -15 -3 11 -1 17 4 14 5 -3 17 8 27
25 12 22 24 31 44 31 23 0 27 -4 26 -28z m106 -27 c5 -13 -14 -21 -28 -12 -2
1 -14 -7 -27 -18 -20 -18 -22 -18 -16 -2 4 11 3 16 -3 12 -6 -3 -10 -13 -10
-21 0 -8 -4 -14 -10 -14 -27 0 11 57 43 63 40 8 45 7 51 -8z m-120 -27 c-3 -4
-15 -8 -27 -8 -15 0 -18 3 -9 8 17 11 43 11 36 0z m-209 -28 c3 -5 1 -10 -4
-10 -6 0 -11 5 -11 10 0 6 2 10 4 10 3 0 8 -4 11 -10z m101 -5 c-10 -10 -25
-12 -52 -7 l-39 6 35 6 c68 11 72 10 56 -5z m2674 -35 c13 -26 34 -47 56 -57
29 -14 32 -18 17 -24 -30 -11 63 -31 108 -24 21 4 55 17 74 31 41 27 43 24 13
-18 l-21 -30 21 11 c12 7 46 41 74 77 29 36 54 60 56 54 8 -22 -20 -135 -46
-190 -34 -74 -129 -166 -212 -207 -65 -32 -169 -63 -209 -63 -12 0 -107 34
-210 75 -104 41 -194 75 -200 75 -12 0 -13 25 -2 54 6 15 31 25 100 42 159 39
279 109 331 193 14 22 26 41 27 41 2 0 12 -18 23 -40z m-2616 -12 c-3 -5 -14
-6 -25 -3 -12 4 -19 2 -19 -6 0 -7 -2 -10 -5 -7 -3 3 -1 18 5 33 10 27 11 27
30 10 11 -10 17 -22 14 -27z m31 32 c-3 -5 -11 -10 -16 -10 -6 0 -7 5 -4 10 3
6 11 10 16 10 6 0 7 -4 4 -10z m3185 -52 c11 -24 20 -61 20 -82 0 -53 21 -34
30 26 l6 43 13 -59 c13 -60 11 -154 -4 -190 -6 -14 -5 -17 3 -12 19 12 14 -5
-18 -59 -16 -27 -30 -43 -30 -35 0 8 -39 -25 -86 -75 -75 -79 -86 -82 -37 -10
28 41 12 46 -29 8 -51 -46 -117 -92 -175 -122 -51 -26 -56 -26 -44 -3 15 28
24 109 13 116 -5 3 -13 -4 -16 -17 -6 -21 -8 -20 -26 15 -11 20 -31 45 -45 56
l-26 21 53 34 c65 41 133 116 172 188 56 102 94 147 149 173 29 14 53 25 55
26 2 0 12 -19 22 -42z m-1090 -98 c-6 -11 -13 -20 -16 -20 -2 0 0 9 6 20 6 11
13 20 16 20 2 0 0 -9 -6 -20z m-504 -116 c51 -21 51 -20 23 -43 -21 -18 -49
-28 -49 -17 0 2 -7 20 -15 40 -17 41 -13 43 41 20z m389 -91 l47 -6 -5 -51
c-3 -28 -8 -73 -12 -101 -7 -62 4 -41 35 63 18 60 25 72 39 67 9 -4 41 -14 71
-22 88 -24 128 -49 138 -86 5 -20 4 -39 -3 -52 -24 -45 -40 -65 -52 -65 -7 0
-13 -4 -13 -10 0 -5 -6 -10 -14 -10 -8 0 -22 -7 -30 -16 -37 -36 -164 -46
-255 -19 -53 16 -134 86 -151 130 -16 43 -23 155 -10 170 14 16 126 21 215 8z
m560 -153 c-16 -16 -35 -30 -42 -30 -7 0 -19 14 -28 30 l-16 30 58 0 57 0 -29
-30z m-865 -331 c121 -77 276 -120 430 -120 131 0 257 32 387 100 56 29 183
65 183 51 0 -4 -29 -35 -65 -70 -36 -34 -64 -65 -61 -67 2 -3 25 4 50 16 51
22 56 17 24 -24 l-21 -27 24 7 c13 4 41 16 62 27 l38 19 -15 -30 c-9 -16 -34
-51 -56 -76 -23 -26 -39 -49 -36 -52 2 -2 19 3 37 13 l33 17 -15 -23 c-8 -12
-43 -34 -77 -47 -35 -14 -61 -27 -59 -30 10 -9 174 53 219 83 26 18 48 29 48
25 0 -11 -69 -101 -78 -101 -4 -1 -27 -19 -52 -42 l-45 -41 40 7 c22 4 51 10
65 13 24 6 24 5 -7 -29 -18 -19 -33 -36 -33 -39 0 -3 35 -4 78 -1 80 4 157
-10 237 -44 l40 -17 -44 -18 c-53 -23 -238 -127 -245 -137 -3 -5 47 -9 111
-10 64 -2 121 -6 126 -9 15 -9 -35 -32 -117 -53 -41 -10 -136 -44 -212 -76
-77 -31 -219 -85 -318 -120 -98 -35 -199 -75 -225 -87 -70 -35 -279 -105 -336
-112 -49 -6 -53 -5 -184 74 -74 45 -188 118 -255 162 -67 45 -152 97 -191 116
-79 38 -128 81 -156 135 -10 21 -19 40 -19 43 0 3 20 -6 45 -19 26 -15 45 -21
45 -14 0 6 12 1 26 -13 l27 -24 -29 45 c-15 25 -35 53 -43 63 -18 22 -9 32 17
18 10 -5 43 -20 73 -31 l54 -21 -71 73 c-83 85 -122 138 -102 138 7 0 42 -9
77 -20 35 -11 66 -19 68 -17 2 2 -5 15 -15 28 -35 45 -53 90 -61 154 -4 36 -5
65 -3 65 3 0 19 -11 37 -24 68 -52 233 -126 281 -126 24 0 24 0 -9 43 -35 46
-94 173 -85 183 4 3 28 -10 55 -29 26 -19 72 -47 101 -61 l53 -27 -40 58 c-22
32 -38 60 -36 62 2 2 26 -10 52 -27 50 -32 123 -66 123 -57 0 2 -36 26 -81 52
-44 25 -84 54 -90 64 -17 32 -10 41 19 21 31 -22 93 -45 100 -37 3 3 -6 18
-21 33 -23 24 -90 142 -80 142 2 0 28 -16 58 -37 31 -20 58 -33 62 -29 4 3
-11 25 -33 48 l-39 42 50 -45 c28 -25 75 -61 105 -80z"/>
<path d="M1661 5874 c-30 -22 -26 -35 6 -19 15 8 30 12 35 9 4 -3 8 -1 8 4 0
18 -27 21 -49 6z"/>
<path d="M1411 4864 c0 -11 3 -14 6 -6 3 7 2 16 -1 19 -3 4 -6 -2 -5 -13z"/>
<path d="M1391 4844 c0 -11 3 -14 6 -6 3 7 2 16 -1 19 -3 4 -6 -2 -5 -13z"/>
<path d="M2952 5140 c-14 -23 -5 -26 20 -6 10 7 15 16 11 19 -10 11 -18 8 -31
-13z"/>
<path d="M3279 4993 c-25 -27 -51 -57 -59 -68 -7 -11 8 4 34 32 26 29 57 60
69 68 12 8 17 15 11 15 -5 0 -30 -21 -55 -47z"/>
<path d="M3074 4927 c-33 -24 -68 -55 -79 -68 -11 -13 -1 -7 22 13 23 20 60
49 83 64 36 24 47 34 36 34 -2 0 -30 -20 -62 -43z"/>
<path d="M3279 4893 l-34 -38 38 34 c34 33 42 41 34 41 -2 0 -19 -17 -38 -37z"/>
<path d="M3234 4895 c-24 -18 -37 -19 -29 -2 4 6 -2 1 -13 -13 -12 -14 -19
-26 -17 -28 3 -4 85 48 85 54 0 7 -6 4 -26 -11z"/>
<path d="M3718 4843 c7 -3 16 -2 19 1 4 3 -2 6 -13 5 -11 0 -14 -3 -6 -6z"/>
<path d="M2949 4813 c-13 -16 -12 -17 4 -4 16 13 21 21 13 21 -2 0 -10 -8 -17
-17z"/>
<path d="M3608 4801 c-25 -16 -49 -35 -54 -43 -4 -7 1 -6 12 4 10 9 39 28 64
42 25 14 40 26 34 26 -5 0 -31 -13 -56 -29z"/>
<path d="M3739 4803 c-13 -16 -12 -17 4 -4 16 13 21 21 13 21 -2 0 -10 -8 -17
-17z"/>
<path d="M3677 4752 c-41 -42 -48 -58 -16 -42 11 7 18 14 15 18 -4 3 6 18 21
34 15 15 25 28 22 28 -3 0 -22 -17 -42 -38z"/>
<path d="M3710 4745 c-14 -8 -20 -14 -15 -14 6 0 21 6 35 14 14 8 21 14 15 14
-5 0 -21 -6 -35 -14z"/>
<path d="M3370 4577 c0 -3 12 -12 26 -22 15 -9 23 -12 20 -6 -7 11 -46 35 -46
28z"/>
<path d="M3343 4483 c9 -2 23 -2 30 0 6 3 -1 5 -18 5 -16 0 -22 -2 -12 -5z"/>
<path d="M4379 3893 c-13 -16 -12 -17 4 -4 16 13 21 21 13 21 -2 0 -10 -8 -17
-17z"/>
<path d="M5711 4664 c0 -11 3 -14 6 -6 3 7 2 16 -1 19 -3 4 -6 -2 -5 -13z"/>
<path d="M5651 4404 c0 -11 3 -14 6 -6 3 7 2 16 -1 19 -3 4 -6 -2 -5 -13z"/>
<path d="M5641 4313 c-7 -8 -11 -16 -8 -19 2 -2 10 2 17 11 17 20 9 27 -9 8z"/>
<path d="M5615 4199 c-4 -6 -5 -12 -2 -15 2 -3 7 2 10 11 7 17 1 20 -8 4z"/>
<path d="M5516 3924 c-4 -9 -4 -19 -1 -22 3 -3 5 0 5 7 0 7 4 9 10 6 6 -3 7 1
4 9 -8 20 -10 20 -18 0z"/>
</g>
</svg>
